<svg xmlns="http://www.w3.org/2000/svg" width="24.06" height="17.5" viewBox="0 0 24.06 17.5">
  <metadata><?xpacket begin="﻿" id="W5M0MpCehiHzreSzNTczkc9d"?>
<x:xmpmeta xmlns:x="adobe:ns:meta/" x:xmptk="Adobe XMP Core 5.6-c138 79.159824, 2016/09/14-01:09:01        ">
   <rdf:RDF xmlns:rdf="http://www.w3.org/1999/02/22-rdf-syntax-ns#">
      <rdf:Description rdf:about=""/>
   </rdf:RDF>
</x:xmpmeta>
                                                                                                    
                                                                                                    
                                                                                                    
                                                                                                    
                                                                                                    
                                                                                                    
                                                                                                    
                                                                                                    
                                                                                                    
                                                                                                    
                                                                                                    
                                                                                                    
                                                                                                    
                                                                                                    
                                                                                                    
                                                                                                    
                                                                                                    
                                                                                                    
                                                                                                    
                                                                                                    
                           
<?xpacket end="w"?></metadata>
<defs>
    <style>
      .cls-1 {
        fill: #1c1c1c;
        fill-rule: evenodd;
      }
    </style>
  </defs>
  <path id="Email" class="cls-1" d="M1352.75,3270.5h-19.54a2.31,2.31,0,0,0-2.26,2.35v12.8a2.31,2.31,0,0,0,2.26,2.35h19.54a2.308,2.308,0,0,0,2.25-2.35v-12.8A2.308,2.308,0,0,0,1352.75,3270.5Zm-0.37,1.57-9.4,7.06-9.4-7.06h18.8Zm0.37,14.36h-19.54a0.762,0.762,0,0,1-.75-0.78v-12.49l10.08,7.58a0.767,0.767,0,0,0,.44.14,0.816,0.816,0,0,0,.44-0.14l10.08-7.58v12.49A0.769,0.769,0,0,1,1352.75,3286.43Z" transform="translate(-1330.94 -3270.5)"/>
</svg>
