<svg xmlns="http://www.w3.org/2000/svg" width="86" height="64" viewBox="0 0 86 64">
  <metadata><?xpacket begin="﻿" id="W5M0MpCehiHzreSzNTczkc9d"?>
<x:xmpmeta xmlns:x="adobe:ns:meta/" x:xmptk="Adobe XMP Core 5.6-c138 79.159824, 2016/09/14-01:09:01        ">
   <rdf:RDF xmlns:rdf="http://www.w3.org/1999/02/22-rdf-syntax-ns#">
      <rdf:Description rdf:about=""/>
   </rdf:RDF>
</x:xmpmeta>
                                                                                                    
                                                                                                    
                                                                                                    
                                                                                                    
                                                                                                    
                                                                                                    
                                                                                                    
                                                                                                    
                                                                                                    
                                                                                                    
                                                                                                    
                                                                                                    
                                                                                                    
                                                                                                    
                                                                                                    
                                                                                                    
                                                                                                    
                                                                                                    
                                                                                                    
                                                                                                    
                           
<?xpacket end="w"?></metadata>
<defs>
    <style>
      .cls-1 {
        fill: #3172b9;
        fill-rule: evenodd;
      }
    </style>
  </defs>
  <path id="icon2" class="cls-1" d="M648.693,1087.94a20.211,20.211,0,0,0-28.623,0l-1.607,1.61-1.607-1.61a20.211,20.211,0,0,0-28.623,0,20.318,20.318,0,0,0,0,28.67l28.722,28.76a2.121,2.121,0,0,0,3.017,0l28.721-28.76A20.294,20.294,0,0,0,648.693,1087.94Zm-3.015,25.65-27.215,27.25-27.215-27.25a16.038,16.038,0,0,1,0-22.63,15.95,15.95,0,0,1,22.593,0l3.114,3.12a2.137,2.137,0,0,0,3.015,0l3.115-3.12a15.95,15.95,0,0,1,22.593,0A16.038,16.038,0,0,1,645.678,1113.59Zm-60.728-4.61h-7.818a2.135,2.135,0,0,0,0,4.27h7.818A2.135,2.135,0,0,0,584.95,1108.98Zm66.809,0.07H631.352l-3.176-6.99a1.417,1.417,0,0,0-2.633.11l-6.49,18.32-7.891-21.89a1.429,1.429,0,0,0-1.27-.94,1.385,1.385,0,0,0-1.353.82l-5.3,11.28H585.66a1.425,1.425,0,0,0-1.421,1.43,1.655,1.655,0,0,0,1.721,1.35h18.479a0.978,0.978,0,0,0,.987-0.75l4.227-8.99,8.076,22.4a1.428,1.428,0,0,0,1.337.94h0a1.428,1.428,0,0,0,1.335-.95l6.642-18.75,2.1,4.62a1.846,1.846,0,0,0,1.593.77h21.323a1.141,1.141,0,0,0,1.121-1.36A1.423,1.423,0,0,0,651.759,1109.05Zm7.109-.78h-6.4a2.135,2.135,0,0,0,0,4.27h6.4A2.135,2.135,0,0,0,658.868,1108.27Z" transform="translate(-575 -1082)"/>
</svg>
