<svg xmlns="http://www.w3.org/2000/svg" width="65" height="65" viewBox="0 0 65 65">
  <metadata><?xpacket begin="﻿" id="W5M0MpCehiHzreSzNTczkc9d"?>
<x:xmpmeta xmlns:x="adobe:ns:meta/" x:xmptk="Adobe XMP Core 5.6-c138 79.159824, 2016/09/14-01:09:01        ">
   <rdf:RDF xmlns:rdf="http://www.w3.org/1999/02/22-rdf-syntax-ns#">
      <rdf:Description rdf:about=""/>
   </rdf:RDF>
</x:xmpmeta>
                                                                                                    
                                                                                                    
                                                                                                    
                                                                                                    
                                                                                                    
                                                                                                    
                                                                                                    
                                                                                                    
                                                                                                    
                                                                                                    
                                                                                                    
                                                                                                    
                                                                                                    
                                                                                                    
                                                                                                    
                                                                                                    
                                                                                                    
                                                                                                    
                                                                                                    
                                                                                                    
                           
<?xpacket end="w"?></metadata>
<defs>
    <style>
      .cls-1 {
        fill: #3172b9;
        fill-rule: evenodd;
      }
    </style>
  </defs>
  <path id="icon4" class="cls-1" d="M1226.61,1111.99l2.86-2.86c0.17,0.01.34,0.02,0.52,0.02a6.356,6.356,0,0,0,4.51-1.87l2.73-2.73a6.392,6.392,0,0,0,0-9.03l-12.66-12.65a6.386,6.386,0,0,0-9.03,0l-2.72,2.73a6.352,6.352,0,0,0-1.85,5.02l-17.35,17.35c-0.17-.01-0.34-0.02-0.51-0.02a6.337,6.337,0,0,0-4.52,1.87l-2.72,2.72a6.392,6.392,0,0,0,0,9.03l12.65,12.66a6.386,6.386,0,0,0,9.03,0l2.73-2.73a6.356,6.356,0,0,0,1.87-4.51c0-.18-0.01-0.35-0.02-0.51l2.86-2.87,20.52,20.52a6.386,6.386,0,0,0,9.03,0l2.59-2.59a6.392,6.392,0,0,0,0-9.03Zm-14.91,8.25-5.15,5.16,0.4,0.4a1.684,1.684,0,0,1,0,2.37l-2.73,2.73a1.672,1.672,0,0,1-1.19.49,1.633,1.633,0,0,1-1.18-.49l-12.66-12.65a1.7,1.7,0,0,1,0-2.38l2.73-2.72a1.683,1.683,0,0,1,1.19-.5,1.643,1.643,0,0,1,1.18.5l0.4,0.4,21.85-21.85-0.4-.4a1.7,1.7,0,0,1,0-2.38l2.73-2.72a1.69,1.69,0,0,1,2.38,0l12.65,12.65a1.678,1.678,0,0,1,0,2.38l-2.73,2.72a1.633,1.633,0,0,1-1.18.49,1.672,1.672,0,0,1-1.19-.49l-0.4-.4-5.16,5.16-3.46,3.46-4.62,4.61Zm32.1,17.97-2.59,2.59a1.69,1.69,0,0,1-2.38,0l-20.51-20.51,4.97-4.97,20.51,20.51A1.678,1.678,0,0,1,1243.8,1138.21Z" transform="translate(-1184 -1081)"/>
</svg>
