<svg xmlns="http://www.w3.org/2000/svg" width="18.5" height="19.06" viewBox="0 0 18.5 19.06">
  <metadata><?xpacket begin="﻿" id="W5M0MpCehiHzreSzNTczkc9d"?>
<x:xmpmeta xmlns:x="adobe:ns:meta/" x:xmptk="Adobe XMP Core 5.6-c138 79.159824, 2016/09/14-01:09:01        ">
   <rdf:RDF xmlns:rdf="http://www.w3.org/1999/02/22-rdf-syntax-ns#">
      <rdf:Description rdf:about=""/>
   </rdf:RDF>
</x:xmpmeta>
                                                                                                    
                                                                                                    
                                                                                                    
                                                                                                    
                                                                                                    
                                                                                                    
                                                                                                    
                                                                                                    
                                                                                                    
                                                                                                    
                                                                                                    
                                                                                                    
                                                                                                    
                                                                                                    
                                                                                                    
                                                                                                    
                                                                                                    
                                                                                                    
                                                                                                    
                                                                                                    
                           
<?xpacket end="w"?></metadata>
<defs>
    <style>
      .cls-1 {
        fill: #1c1c1c;
        fill-rule: evenodd;
      }
    </style>
  </defs>
  <path id="Linkedin" class="cls-1" d="M1300.43,3279.68v7.37h-3.97v-6.88c0-1.73-.57-2.9-2.01-2.9a2.182,2.182,0,0,0-2.03,1.56,2.991,2.991,0,0,0-.13,1.04v7.18h-3.97s0.05-11.65,0-12.85h3.97v1.82c-0.01.01-.02,0.03-0.03,0.04h0.03v-0.04a3.878,3.878,0,0,1,3.57-2.13C1298.47,3273.89,1300.43,3275.73,1300.43,3279.68ZM1284.17,3268a2.22,2.22,0,0,0-.05,4.44h0.03A2.22,2.22,0,1,0,1284.17,3268Zm-2.01,19.05h3.97V3274.2h-3.97v12.85Z" transform="translate(-1281.94 -3268)"/>
</svg>
