<svg xmlns="http://www.w3.org/2000/svg" width="115" height="44" viewBox="0 0 115 44">
  <metadata><?xpacket begin="﻿" id="W5M0MpCehiHzreSzNTczkc9d"?>
<x:xmpmeta xmlns:x="adobe:ns:meta/" x:xmptk="Adobe XMP Core 5.6-c138 79.159824, 2016/09/14-01:09:01        ">
   <rdf:RDF xmlns:rdf="http://www.w3.org/1999/02/22-rdf-syntax-ns#">
      <rdf:Description rdf:about=""/>
   </rdf:RDF>
</x:xmpmeta>
                                                                                                    
                                                                                                    
                                                                                                    
                                                                                                    
                                                                                                    
                                                                                                    
                                                                                                    
                                                                                                    
                                                                                                    
                                                                                                    
                                                                                                    
                                                                                                    
                                                                                                    
                                                                                                    
                                                                                                    
                                                                                                    
                                                                                                    
                                                                                                    
                                                                                                    
                                                                                                    
                           
<?xpacket end="w"?></metadata>
<defs>
    <style>
      .cls-1 {
        fill: #3172b9;
        fill-rule: evenodd;
      }
    </style>
  </defs>
  <path id="Logo" class="cls-1" d="M186,61.439V36.327h3.225V58.175h8.913v3.265H186ZM207.01,36.327V61.439h-3.226V36.327h3.226ZM235,39.764a12.911,12.911,0,0,1,0,18.175,12.69,12.69,0,0,1-18.045,0,12.913,12.913,0,0,1,0-18.175A12.688,12.688,0,0,1,235,39.764Zm-9.022-.487a9.126,9.126,0,0,0-6.724,2.8,9.637,9.637,0,0,0,.008,13.553,9.442,9.442,0,0,0,13.44,0,9.644,9.644,0,0,0,0-13.553A9.128,9.128,0,0,0,225.981,39.277Zm18.659-2.95h2.945l10.284,17.924V36.327h3.242V61.439H258.29L247.865,43.3V61.439H244.64V36.327Zm26.278,0V61.439h-3.226V36.327h3.226Zm25.89,19.133,2.415,2.182a13.7,13.7,0,0,1-9.365,4.065,12.225,12.225,0,0,1-9.007-3.751,12.913,12.913,0,0,1,0-18.144,12.2,12.2,0,0,1,9.007-3.766,13.7,13.7,0,0,1,9.365,4.065l-2.415,2.213a10.351,10.351,0,0,0-6.95-2.982,9.1,9.1,0,0,0-6.693,2.794,9.6,9.6,0,0,0,0,13.514,9.105,9.105,0,0,0,6.693,2.793A10.352,10.352,0,0,0,296.808,55.459Zm-57.831,21.4h3.345v0.674h-4.075V70.309h0.73v6.555Zm4.561-1.531a2.053,2.053,0,0,0,.172.674,1.775,1.775,0,0,0,.376.546,1.755,1.755,0,0,0,.537.362,1.622,1.622,0,0,0,.659.133,1.679,1.679,0,0,0,.927-0.25,1.867,1.867,0,0,0,.593-0.577l0.517,0.429a2.58,2.58,0,0,1-.938.776,2.61,2.61,0,0,1-1.1.235,2.507,2.507,0,0,1-.979-0.189,2.3,2.3,0,0,1-.775-0.525,2.505,2.505,0,0,1-.512-0.8,2.624,2.624,0,0,1-.188-1,2.681,2.681,0,0,1,.183-1,2.419,2.419,0,0,1,.507-0.8,2.327,2.327,0,0,1,1.7-.715,2.3,2.3,0,0,1,.962.194,2.143,2.143,0,0,1,.715.516,2.2,2.2,0,0,1,.441.755,2.761,2.761,0,0,1,.153.924v0.307h-3.954Zm3.224-.552a1.539,1.539,0,0,0-.406-1.108,1.5,1.5,0,0,0-1.135-.423,1.621,1.621,0,0,0-.629.127,1.769,1.769,0,0,0-.532.342,1.712,1.712,0,0,0-.365.49,1.274,1.274,0,0,0-.137.572h3.2Zm2.31,3.716a2.146,2.146,0,0,0,.766.638,2.274,2.274,0,0,0,1.049.24,2.246,2.246,0,0,0,.861-0.148,1.5,1.5,0,0,0,.573-0.4,1.553,1.553,0,0,0,.315-0.6,2.732,2.732,0,0,0,.095-0.73V76.639h-0.019a1.837,1.837,0,0,1-.791.694,2.425,2.425,0,0,1-.984.2,2.543,2.543,0,0,1-.967-0.184,2.449,2.449,0,0,1-.786-0.506,2.315,2.315,0,0,1-.527-0.77,2.427,2.427,0,0,1-.193-0.969,2.545,2.545,0,0,1,.183-0.97,2.48,2.48,0,0,1,.5-0.786,2.275,2.275,0,0,1,.76-0.526,2.442,2.442,0,0,1,.968-0.189,2.617,2.617,0,0,1,.45.041,2.1,2.1,0,0,1,.477.143,2.209,2.209,0,0,1,.908.735h0.019v-0.8H253.4V77.5a3.934,3.934,0,0,1-.095.827,2.059,2.059,0,0,1-.376.807,2.122,2.122,0,0,1-.775.613,2.947,2.947,0,0,1-1.3.245,3.23,3.23,0,0,1-1.267-.235,2.925,2.925,0,0,1-1.013-.724Zm0.122-3.41a1.847,1.847,0,0,0,.137.71,1.873,1.873,0,0,0,.375.582,1.812,1.812,0,0,0,.557.4,1.619,1.619,0,0,0,.695.148,1.846,1.846,0,0,0,1.277-.505,1.618,1.618,0,0,0,.39-0.577,1.848,1.848,0,0,0,.127-0.755,2.024,2.024,0,0,0-.122-0.71,1.684,1.684,0,0,0-.922-0.98,1.834,1.834,0,0,0-.75-0.148,1.634,1.634,0,0,0-.695.148,1.828,1.828,0,0,0-.557.4,1.877,1.877,0,0,0-.375.582A1.847,1.847,0,0,0,249.194,75.087Zm8.748-.479V74.485a1.083,1.083,0,0,0-1.216-1.235,2.084,2.084,0,0,0-1.45.562l-0.405-.48a2.663,2.663,0,0,1,2.006-.695,2.179,2.179,0,0,1,.665.1,1.5,1.5,0,0,1,.552.312,1.539,1.539,0,0,1,.375.525,1.834,1.834,0,0,1,.142.756v2.133c0,0.184.009,0.376,0.025,0.577s0.036,0.366.056,0.5h-0.649c-0.02-.115-0.035-0.241-0.045-0.377s-0.015-.269-0.015-0.4h-0.021a1.816,1.816,0,0,1-.694.69,2.092,2.092,0,0,1-.979.209,2.171,2.171,0,0,1-.608-0.087,1.555,1.555,0,0,1-.522-0.265,1.35,1.35,0,0,1-.364-0.44,1.278,1.278,0,0,1-.137-0.607,1.312,1.312,0,0,1,.3-0.914,1.833,1.833,0,0,1,.75-0.5,3.746,3.746,0,0,1,.963-0.2q0.512-.04.938-0.04h0.334Zm-0.344.551c-0.169,0-.381.009-0.634,0.026a3.631,3.631,0,0,0-.73.122,1.606,1.606,0,0,0-.6.3,0.686,0.686,0,0,0-.248.562,0.77,0.77,0,0,0,.354.678,1.1,1.1,0,0,0,.36.154,1.775,1.775,0,0,0,.4.046,1.5,1.5,0,0,0,.634-0.123,1.3,1.3,0,0,0,.451-0.331,1.335,1.335,0,0,0,.269-0.49,2.047,2.047,0,0,0,.086-0.6V75.158H257.6Zm3.385,2.379h-0.669V69.819h0.669v7.719Zm8.068-6.034a1.569,1.569,0,0,0-1.389-.7,2.04,2.04,0,0,0-.557.076,1.548,1.548,0,0,0-.491.234,1.18,1.18,0,0,0-.35.409,1.241,1.241,0,0,0-.132.587,1.02,1.02,0,0,0,.274.76,2.127,2.127,0,0,0,.679.445,7.539,7.539,0,0,0,.887.312,4.019,4.019,0,0,1,.886.367,2.108,2.108,0,0,1,.68.607,1.73,1.73,0,0,1,.273,1.031,1.863,1.863,0,0,1-.207.883,2.038,2.038,0,0,1-.548.659,2.564,2.564,0,0,1-.76.408,2.614,2.614,0,0,1-.846.143,3.186,3.186,0,0,1-1.252-.25,2.384,2.384,0,0,1-1.009-.822l0.669-.48a1.754,1.754,0,0,0,.647.638,1.925,1.925,0,0,0,.98.239,1.78,1.78,0,0,0,.546-0.087,1.556,1.556,0,0,0,.49-0.256,1.413,1.413,0,0,0,.359-0.413,1.106,1.106,0,0,0,.141-0.561,1.166,1.166,0,0,0-.157-0.628,1.342,1.342,0,0,0-.415-0.419,2.6,2.6,0,0,0-.589-0.281c-0.219-.075-0.446-0.15-0.679-0.225s-0.459-.159-0.679-0.255a2.339,2.339,0,0,1-.588-0.362,1.619,1.619,0,0,1-.415-0.552,1.937,1.937,0,0,1-.158-0.832,1.972,1.972,0,0,1,.2-0.909,1.894,1.894,0,0,1,.527-0.643,2.237,2.237,0,0,1,.745-0.378,3.15,3.15,0,0,1,1.957.071,2.38,2.38,0,0,1,.922.685Zm6.792,3.644a2.624,2.624,0,0,1-.188,1,2.429,2.429,0,0,1-.521.8,2.4,2.4,0,0,1-.8.525,2.666,2.666,0,0,1-1.019.189,2.637,2.637,0,0,1-1.009-.189,2.356,2.356,0,0,1-1.317-1.322,2.758,2.758,0,0,1,0-2,2.364,2.364,0,0,1,1.317-1.322,2.652,2.652,0,0,1,1.009-.189,2.681,2.681,0,0,1,1.019.189,2.356,2.356,0,0,1,1.317,1.322A2.624,2.624,0,0,1,275.843,75.148Zm-0.73,0a2.141,2.141,0,0,0-.127-0.745,1.789,1.789,0,0,0-.36-0.6,1.706,1.706,0,0,0-.562-0.4,1.953,1.953,0,0,0-1.49,0,1.649,1.649,0,0,0-.558.4,1.843,1.843,0,0,0-.354.6,2.234,2.234,0,0,0,0,1.491,1.824,1.824,0,0,0,.354.6,1.613,1.613,0,0,0,.558.4,1.952,1.952,0,0,0,1.49,0,1.668,1.668,0,0,0,.562-0.4,1.771,1.771,0,0,0,.36-0.6A2.148,2.148,0,0,0,275.113,75.148Zm2.767,2.39h-0.669V69.819h0.669v7.719Zm5.037,0c-0.013-.13-0.021-0.257-0.024-0.383s-0.006-.254-0.006-0.383h-0.02a1.533,1.533,0,0,1-.284.357,1.82,1.82,0,0,1-.385.281,2.143,2.143,0,0,1-.451.185,1.761,1.761,0,0,1-.471.066,1.724,1.724,0,0,1-1.349-.485,2,2,0,0,1-.435-1.383V72.759h0.669V75.4a3.605,3.605,0,0,0,.061.7,1.315,1.315,0,0,0,.208.515,0.9,0.9,0,0,0,.395.316,1.571,1.571,0,0,0,.623.107,2.521,2.521,0,0,0,.284-0.041,1.237,1.237,0,0,0,.492-0.225,1.633,1.633,0,0,0,.461-0.551,2.147,2.147,0,0,0,.2-1.021v-2.45h0.669v3.726c0,0.13.006,0.292,0.016,0.49s0.021,0.384.035,0.562h-0.69Zm4.664-4.166h-1.369V76.19a1.529,1.529,0,0,0,.051.434,0.61,0.61,0,0,0,.142.261,0.483,0.483,0,0,0,.218.127,1.006,1.006,0,0,0,.279.036A1.29,1.29,0,0,0,287.257,77a1.615,1.615,0,0,0,.334-0.132l0.03,0.622a2.12,2.12,0,0,1-.9.175,1.653,1.653,0,0,1-.4-0.052,0.926,0.926,0,0,1-.38-0.194,1.07,1.07,0,0,1-.284-0.387,1.559,1.559,0,0,1-.112-0.643V73.371h-1V72.759h1V71.411h0.669v1.348h1.369v0.612Zm1.885-2.449a0.457,0.457,0,0,1-.152.352,0.477,0.477,0,0,1-.669,0,0.482,0.482,0,0,1,0-.7,0.474,0.474,0,0,1,.669,0A0.455,0.455,0,0,1,289.466,70.922Zm-0.152,6.615h-0.669V72.759h0.669v4.778Zm6.406-2.39a2.643,2.643,0,0,1-.187,1,2.447,2.447,0,0,1-.522.8,2.4,2.4,0,0,1-.8.525,2.663,2.663,0,0,1-1.019.189,2.628,2.628,0,0,1-1.008-.189,2.384,2.384,0,0,1-.8-0.525,2.416,2.416,0,0,1-.522-0.8,2.758,2.758,0,0,1,0-2,2.362,2.362,0,0,1,1.318-1.322,2.643,2.643,0,0,1,1.008-.189,2.678,2.678,0,0,1,1.019.189,2.406,2.406,0,0,1,.8.526,2.44,2.44,0,0,1,.522.8A2.643,2.643,0,0,1,295.72,75.148Zm-0.73,0a2.164,2.164,0,0,0-.126-0.745,1.808,1.808,0,0,0-.361-0.6,1.7,1.7,0,0,0-.562-0.4,1.953,1.953,0,0,0-1.49,0,1.659,1.659,0,0,0-.558.4,1.861,1.861,0,0,0-.354.6,2.25,2.25,0,0,0,0,1.491,1.842,1.842,0,0,0,.354.6,1.623,1.623,0,0,0,.558.4,1.952,1.952,0,0,0,1.49,0,1.658,1.658,0,0,0,.562-0.4,1.79,1.79,0,0,0,.361-0.6A2.171,2.171,0,0,0,294.99,75.148Zm2.584-2.388c0.014,0.129.022,0.257,0.026,0.383s0,0.254,0,.383h0.02a1.586,1.586,0,0,1,.284-0.358,1.878,1.878,0,0,1,.385-0.28,2.038,2.038,0,0,1,.451-0.184,2,2,0,0,1,1.82.419A2,2,0,0,1,301,74.5v3.032h-0.669V74.893a2.241,2.241,0,0,0-.274-1.221,1.113,1.113,0,0,0-1.013-.423,2.766,2.766,0,0,0-.283.041,1.23,1.23,0,0,0-.492.224,1.616,1.616,0,0,0-.461.552,2.134,2.134,0,0,0-.2,1.021v2.45h-0.669V73.811c0-.129,0-0.293-0.016-0.49s-0.021-.385-0.035-0.561h0.689Zm-68.592,1.967H186V73.379h42.983v1.348Z" transform="translate(-186 -36)"/>
</svg>
