<svg xmlns="http://www.w3.org/2000/svg" width="13.938" height="17" viewBox="0 0 13.938 17">
  <metadata><?xpacket begin="﻿" id="W5M0MpCehiHzreSzNTczkc9d"?>
<x:xmpmeta xmlns:x="adobe:ns:meta/" x:xmptk="Adobe XMP Core 5.6-c138 79.159824, 2016/09/14-01:09:01        ">
   <rdf:RDF xmlns:rdf="http://www.w3.org/1999/02/22-rdf-syntax-ns#">
      <rdf:Description rdf:about=""/>
   </rdf:RDF>
</x:xmpmeta>
                                                                                                    
                                                                                                    
                                                                                                    
                                                                                                    
                                                                                                    
                                                                                                    
                                                                                                    
                                                                                                    
                                                                                                    
                                                                                                    
                                                                                                    
                                                                                                    
                                                                                                    
                                                                                                    
                                                                                                    
                                                                                                    
                                                                                                    
                                                                                                    
                                                                                                    
                                                                                                    
                           
<?xpacket end="w"?></metadata>
<defs>
    <style>
      .cls-1 {
        fill: #787878;
        fill-rule: evenodd;
      }
    </style>
  </defs>
  <path id="Shield-icon" class="cls-1" d="M237.983,513.377c-0.009-.459-0.017-0.893-0.017-1.312a0.589,0.589,0,0,0-.583-0.6,7.955,7.955,0,0,1-5.977-2.3,0.576,0.576,0,0,0-.813,0,7.952,7.952,0,0,1-5.975,2.3,0.589,0.589,0,0,0-.584.6c0,0.419-.008.853-0.016,1.312-0.08,4.272-.19,10.121,6.791,12.59a0.569,0.569,0,0,0,.382,0C238.172,523.5,238.062,517.648,237.983,513.377ZM231,524.774c-5.987-2.219-5.9-7.08-5.816-11.374,0-.258.009-0.507,0.013-0.752A8.891,8.891,0,0,0,231,510.4a8.891,8.891,0,0,0,5.8,2.245c0,0.244.008,0.494,0.012,0.752C236.9,517.694,236.987,522.555,231,524.774Zm2.008-9.341-2.815,2.872-1.2-1.226a0.576,0.576,0,0,0-.825,0,0.606,0.606,0,0,0,0,.842l1.614,1.646a0.576,0.576,0,0,0,.825,0l3.227-3.292a0.6,0.6,0,0,0,0-.842A0.574,0.574,0,0,0,233.008,515.433Z" transform="translate(-224.031 -509)"/>
</svg>
