<svg xmlns="http://www.w3.org/2000/svg" width="18.5" height="15.25" viewBox="0 0 18.5 15.25">
  <metadata><?xpacket begin="﻿" id="W5M0MpCehiHzreSzNTczkc9d"?>
<x:xmpmeta xmlns:x="adobe:ns:meta/" x:xmptk="Adobe XMP Core 5.6-c138 79.159824, 2016/09/14-01:09:01        ">
   <rdf:RDF xmlns:rdf="http://www.w3.org/1999/02/22-rdf-syntax-ns#">
      <rdf:Description rdf:about=""/>
   </rdf:RDF>
</x:xmpmeta>
                                                                                                    
                                                                                                    
                                                                                                    
                                                                                                    
                                                                                                    
                                                                                                    
                                                                                                    
                                                                                                    
                                                                                                    
                                                                                                    
                                                                                                    
                                                                                                    
                                                                                                    
                                                                                                    
                                                                                                    
                                                                                                    
                                                                                                    
                                                                                                    
                                                                                                    
                                                                                                    
                           
<?xpacket end="w"?></metadata>
<defs>
    <style>
      .cls-1 {
        fill: #1c1c1c;
        fill-rule: evenodd;
      }
    </style>
  </defs>
  <path id="Twitter" class="cls-1" d="M1250.5,3273.61a7.278,7.278,0,0,1-2.18.61,3.821,3.821,0,0,0,1.67-2.13,7.414,7.414,0,0,1-2.41.93,3.786,3.786,0,0,0-6.56,2.64,3.572,3.572,0,0,0,.1.87,10.737,10.737,0,0,1-7.83-4.02,3.95,3.95,0,0,0-.51,1.94,3.859,3.859,0,0,0,1.69,3.2,3.724,3.724,0,0,1-1.72-.48v0.05a3.837,3.837,0,0,0,3.04,3.77,3.607,3.607,0,0,1-1,.13,3.353,3.353,0,0,1-.71-0.07,3.8,3.8,0,0,0,3.54,2.68,7.523,7.523,0,0,1-4.71,1.64,6.7,6.7,0,0,1-.9-0.05,10.635,10.635,0,0,0,5.81,1.73,10.805,10.805,0,0,0,10.8-10.95c0-.16,0-0.33-0.01-0.5A7.615,7.615,0,0,0,1250.5,3273.61Z" transform="translate(-1232 -3271.81)"/>
</svg>
